<svg xmlns="http://www.w3.org/2000/svg" version="1.1" xmlns:xlink="http://www.w3.org/1999/xlink" xmlns:svgjs="http://svgjs.com/svgjs" height="70.78001403808594" width="293.9833068847656"><defs id="SvgjsDefs1018"></defs><g id="SvgjsG1019" rel="mainfill" name="main_text" xmlns:name="main_text" transform="translate(81.00331521034241,-190.80999755859375)" fill="#20B2FF"><path d="M57.67 191.81L57.54 191.74C56.48 191.34 55.28 191.88 54.89 192.94L46.87 214.48C46.87 214.48 42.23 228.20 41.63 229.73C40.37 233.24 40.30 232.44 39.44 229.99C38.91 228.66 34.93 217.46 33.14 212.49C32.28 210.24 32.15 210.50 33.01 208.25C33.48 207.12 38.18 194.46 38.18 194.46C38.58 193.40 38.05 192.21 36.99 191.81L36.79 191.74C35.73 191.34 34.54 191.88 34.14 192.94C34.14 192.94 31.55 200.76 31.02 202.22C30.43 203.81 30.16 205.27 29.03 202.22C28.44 200.56 25.85 192.94 25.85 192.94C25.45 191.88 24.33 191.34 23.27 191.74L23.07 191.81C22.01 192.21 21.48 193.40 21.87 194.46C21.87 194.46 26.65 207.25 27.11 208.51C27.84 210.44 27.64 210.44 26.98 212.42C25.26 217.26 21.34 228.53 20.88 229.73C19.62 233.24 19.62 232.44 18.69 229.99C18.03 228.33 13.19 214.48 13.19 214.48L5.17 192.94C4.77 191.88 3.58 191.34 2.52 191.74L2.32 191.81C1.26 192.21 0.73 193.40 1.13 194.46L17.63 238.67C17.90 239.54 18.76 240 19.69 240C20.55 240 21.41 239.54 21.68 238.67C21.68 238.67 28.97 218.59 29.37 217.66C30.03 215.87 30.16 216.34 30.62 217.53C31.02 218.52 38.31 238.67 38.31 238.67C38.65 239.54 39.51 240 40.37 240C41.23 240 42.09 239.54 42.42 238.67L58.93 194.46C59.33 193.40 58.73 192.21 57.67 191.81ZM94.99 220.78C94.53 217.46 93.13 214.61 90.81 212.29C87.50 208.98 83.59 207.45 78.95 207.45C74.31 207.45 70.40 208.98 67.08 212.29C63.84 215.54 62.18 219.45 62.18 224.09C62.18 228.73 63.84 232.64 67.08 235.96C70.40 239.20 74.31 240.86 78.95 240.86C83.59 240.86 87.50 239.20 90.81 235.89C91.08 235.63 91.34 235.36 91.61 235.03C92.60 233.97 92.54 232.44 91.34 231.65C89.82 230.72 88.89 231.38 87.37 233.24C85.84 235.09 82.33 236.88 78.95 236.88C75.50 236.88 72.59 235.23 70.20 232.84C68.01 230.72 66.82 228.00 66.55 224.69C66.49 223.69 66.69 223.43 67.61 223.43L93.00 223.43C94.86 223.43 95.12 221.77 94.99 220.78ZM89.16 219.19L68.74 219.19C67.68 219.19 67.35 219.12 67.81 218.26C68.34 217.40 69.07 216.40 70.13 215.34C72.59 212.89 75.50 211.43 78.95 211.43C82.33 211.43 85.25 212.89 87.70 215.34C88.63 216.20 89.29 217.06 89.75 217.93C90.15 218.59 90.55 219.19 89.16 219.19ZM100.29 193.60L100.29 238.01C100.29 239.14 101.22 240 102.28 240L102.55 240C103.67 240 104.60 239.14 104.60 238.01C104.60 238.01 104.60 236.02 104.60 235.49C104.60 235.29 104.73 234.83 105.07 235.23C108.12 238.74 112.29 240.86 116.73 240.86C121.31 240.86 125.28 239.20 128.53 235.96C131.85 232.64 133.44 228.73 133.44 224.09C133.44 219.45 131.85 215.54 128.53 212.29C125.28 208.98 121.31 207.45 116.73 207.45C112.29 207.45 108.51 208.98 105.33 212.82C105.13 213.15 104.60 213.15 104.60 212.62C104.60 210.04 104.60 193.60 104.60 193.60C104.60 192.54 103.67 191.61 102.55 191.61L102.28 191.61C101.22 191.61 100.29 192.54 100.29 193.60ZM104.27 224.09C104.27 217.20 109.84 211.43 116.73 211.43C123.63 211.43 129.20 217.20 129.20 224.09C129.20 230.98 123.63 236.88 116.73 236.88C109.84 236.88 104.27 230.98 104.27 224.09ZM143.18 232.71L142.78 232.71C140.66 232.71 138.87 234.37 138.87 236.55L138.87 236.88C138.87 239.07 140.66 240.86 142.78 240.86L143.18 240.86C145.24 240.86 147.03 239.07 147.03 236.88L147.03 236.55C147.03 234.37 145.24 232.71 143.18 232.71ZM155.84 191.61L155.71 191.61C154.58 191.61 153.66 192.54 153.66 193.66L153.66 237.95C153.66 239.07 154.58 240 155.71 240L155.84 240C156.97 240 157.90 239.07 157.90 237.95L157.90 193.66C157.90 192.54 156.97 191.61 155.84 191.61ZM188.59 190.81C174.73 190.81 163.53 201.95 163.53 215.80C163.53 229.59 174.73 240.86 188.59 240.86C202.44 240.86 212.98 229.59 212.98 215.80C212.98 201.95 202.44 190.81 188.59 190.81ZM188.59 236.88C177.12 236.88 167.77 227.27 167.77 215.80C167.77 204.27 177.12 194.73 188.59 194.73C200.06 194.73 208.74 204.27 208.74 215.80C208.74 227.27 200.06 236.88 188.59 236.88Z" fill="#20B2FF" style="fill: rgb(32, 178, 255);"></path></g><g id="SvgjsG1020" rel="mainfill" name="slogan_text" xmlns:name="slogan_text" transform="translate(132.81665113568306,-169.42999267578125)" fill="#20B2FF"><path d="M10.08 240L5.96 229.69L4.58 229.69L0.45 240L1.64 240L2.92 236.77L7.59 236.77L8.89 240ZM7.27 235.95L3.26 235.95L4.61 232.60L5.22 230.66L5.31 230.66L5.92 232.60ZM15.67 240C18.91 240 20.69 239.37 20.69 234.78C20.69 230.24 18.65 229.69 15.51 229.69L11.82 229.69L11.82 240ZM12.97 239.07L12.97 230.61L15.48 230.61C17.80 230.61 19.51 230.69 19.51 234.77C19.51 238.62 18.48 239.07 15.51 239.07ZM34.05 240L34.05 229.69L32.32 229.69L29.14 237.11L28.46 239.05L27.79 237.11L24.61 229.69L22.88 229.69L22.88 240L23.97 240L23.97 230.98L24.02 230.98L27.84 240L29.09 240L32.91 230.98L32.96 230.98L32.96 240ZM37.76 240L37.76 229.69L36.60 229.69L36.60 240ZM48.92 240L48.92 229.69L47.84 229.69L47.84 238.39L41.76 229.69L40.47 229.69L40.47 240L41.56 240L41.56 231.27L47.65 240ZM60.65 240L60.65 236.29L63.65 236.29C66.70 236.29 67.67 235.83 67.67 233.00C67.67 230.18 66.70 229.69 63.65 229.69L59.50 229.69L59.50 240ZM66.46 233.05C66.46 235.30 65.71 235.38 63.69 235.38L60.65 235.38L60.65 230.61L63.69 230.61C65.71 230.61 66.46 230.70 66.46 232.95ZM78.36 239.15C77.67 238.97 77.39 238.44 77.39 236.84L77.39 235.04L77.39 234.78C77.39 230.24 76.32 229.48 72.85 229.48C71.36 229.48 70.04 229.74 69.16 230.16L69.69 231.01C70.30 230.80 71.52 230.40 72.82 230.40C75.24 230.40 76.06 230.64 76.19 233.80L72.69 233.80C70.23 233.80 68.55 234.49 68.55 236.98C68.55 239.47 70.23 240.16 72.69 240.16C74.47 240.16 75.73 239.53 76.48 238.41C76.66 239.45 77.11 239.87 78.18 240.02ZM76.21 234.77C76.21 237.66 75.76 239.23 72.71 239.23C70.91 239.23 69.64 238.99 69.64 236.98C69.64 234.98 70.89 234.73 72.69 234.73L76.21 234.73ZM88.78 240L88.78 229.69L87.70 229.69L87.70 238.39L81.62 229.69L80.33 229.69L80.33 240L81.42 240L81.42 231.27L87.51 240ZM99.65 238.54C99.04 238.75 97.56 239.29 96.26 239.29C93.30 239.29 92.24 238.67 92.18 235.14L100.67 235.14L100.67 234.72C100.67 230.50 98.94 229.48 95.87 229.48C93.02 229.48 90.99 230.35 90.99 234.98C90.99 239.41 92.82 240.21 96.02 240.21C97.51 240.21 99.29 239.81 100.18 239.39ZM92.20 234.20C92.36 230.56 93.90 230.38 95.87 230.38C98.15 230.38 99.32 230.90 99.45 234.20ZM109.74 240L109.90 239.07L103.77 239.07L103.77 229.69L102.63 229.69L102.63 240Z" fill="#20B2FF" style="fill: rgb(32, 178, 255);"></path></g><g id="SvgjsG1021" rel="mainfill" name="symbol" xmlns:name="symbol_mainfill" transform="translate(-0.33176991965048175,1.5209057825298515) scale(0.6773820441103181)" fill="#20B2FF"><metadata><sfw xmlns="http://ns.adobe.com/SaveForWeb/1.0/"><slices></slices><slicesourcebounds width="1449.1" height="1429.6" y="-1445.1" x="0.4" bottomleftorigin="true"></slicesourcebounds></sfw></metadata><path d="M50,2.9c-4.1,0-8,0.8-11.8,2.4C22.5,11.7,15,29.8,21.5,45.5c4.8,11.6,16,19.1,28.5,19.1c4.1,0,8-0.8,11.8-2.4  C77.5,55.7,85,37.7,78.5,21.9C73.7,10.4,62.5,2.9,50,2.9z M25.5,42.1c-1.9-5.4-1.9-11.2,0-16.7h6.6c-0.5,2.7-0.8,5.6-0.8,8.3  c0,2.6,0.3,5.4,1,8.3H25.5z M36.3,33.7c0-2.9,0.3-5.7,0.9-8.3h10.3v16.7H37.4C36.7,39.3,36.3,36.4,36.3,33.7z M52.5,9.2  c3.5,1.4,6.7,5.7,8.8,11.2h-8.8V9.2z M47.5,9.2v11.2h-8.8C40.8,14.9,44,10.6,47.5,9.2z M47.5,47.1v11.1c-3.3-1.5-6.4-5.9-8.5-11.1  H47.5z M52.5,58.2V47.1H61C58.9,52.3,55.8,56.7,52.5,58.2z M52.5,42.1V25.4h10.3c0.6,2.7,0.9,5.5,0.9,8.3c0,2.7-0.4,5.5-1.1,8.3  H52.5z M67.9,25.4h6.6c1.9,5.6,1.8,11.4,0,16.7h-6.8c0.7-2.9,1-5.8,1-8.3C68.7,31,68.4,28.1,67.9,25.4z M72.2,20.4h-5.6  c-1.1-3.6-2.7-6.9-4.7-9.6C66.1,13,69.7,16.3,72.2,20.4z M38.1,10.8c-1.9,2.7-3.5,6-4.7,9.6h-5.5C30.3,16.3,33.8,13,38.1,10.8z   M27.8,47.1h5.9c1.3,3.7,3,7.2,5.2,10.1C34.4,55,30.5,51.5,27.8,47.1z M61.1,57.1c2.1-2.9,3.9-6.4,5.1-10h5.9  C69.6,51.3,65.8,54.9,61.1,57.1z M9.7,97.1c2.7,0,5.3-1.2,7.1-3.3c0.8-1,1.4-2.1,1.8-3.4h22.6c1.1,3.9,4.6,6.7,8.8,6.7  c4.2,0,7.7-2.8,8.8-6.7h22.6c1.1,3.9,4.6,6.7,8.8,6.7c5.1,0,9.2-4.1,9.2-9.2c0-5.1-4.1-9.2-9.2-9.2c-4.2,0-7.7,2.8-8.8,6.7H58.8  c-0.9-3.1-3.3-5.5-6.3-6.3v-6.9c0-1.4-1.1-2.5-2.5-2.5s-2.5,1.1-2.5,2.5v6.9c-3.1,0.9-5.5,3.3-6.3,6.3H18.5c-0.9-3.3-3.7-5.9-7-6.5  c-3.3-0.6-6.7,0.6-8.9,3.2c-1.8,2.1-2.5,4.9-1.9,7.6c0.7,3.6,3.6,6.6,7.2,7.2C8.5,97.1,9.1,97.1,9.7,97.1z M90.3,83.7  c2.3,0,4.2,1.9,4.2,4.2c0,2.3-1.9,4.2-4.2,4.2c-2.2,0-4-1.7-4.2-3.9c0-0.1,0-0.2,0-0.3s0-0.2,0-0.3C86.3,85.5,88.1,83.7,90.3,83.7z   M50,83.7c2.3,0,4.2,1.9,4.2,4.2c0,2.3-1.9,4.2-4.2,4.2s-4.2-1.9-4.2-4.2C45.8,85.6,47.7,83.7,50,83.7z M5.6,88.8  c-0.2-1.3,0.1-2.5,0.9-3.5c0.8-1,2-1.5,3.2-1.5c0.3,0,0.6,0,0.8,0.1c1.6,0.3,3,1.6,3.3,3.3c0.2,1.3-0.1,2.5-0.9,3.5  c-1,1.2-2.5,1.7-4.1,1.4C7.2,91.7,5.9,90.4,5.6,88.8z" fill="#20B2FF" style="fill: rgb(32, 178, 255);"></path></g></svg>
