<svg xmlns="http://www.w3.org/2000/svg" version="1.1" xmlns:xlink="http://www.w3.org/1999/xlink" xmlns:svgjs="http://svgjs.com/svgjs" height="81.85002136230469" width="287.25"><defs id="SvgjsDefs1006"></defs><g id="SvgjsG1007" rel="mainfill" name="main_text" xmlns:name="main_text" transform="translate(79.25999999046326,-190.89999389648438)" fill="#6C9380"><path d="M2.87 225.33L18.21 226.03Q18.21 227.37 18.27 228.63Q18.33 229.89 18.49 231.10L33.10 231.77Q33.13 231.49 33.13 230.98Q33.23 228.20 33.23 227.15Q33.23 226.61 33.18 225.57Q33.13 224.54 33.03 222.91Q30.32 222.59 25.35 222.27Q14.35 221.54 10.27 219.43Q6.50 217.52 4.62 214.16Q2.74 210.79 2.74 206.04Q2.74 197.94 8.21 194.42Q13.68 190.90 26.50 190.90Q35.94 190.90 41.05 194.42Q46.17 197.94 46.17 204.42Q46.17 204.83 46.14 205.31Q46.11 205.79 46.04 206.42L31.15 205.91L31.41 200.97Q29.27 200.65 26.98 200.51Q24.68 200.37 22.13 200.37Q21.01 200.37 19.72 200.41Q18.43 200.46 16.90 200.59L16.84 208.46L18.43 208.46Q34.18 208.46 41.58 212.53Q48.98 216.60 48.98 225.24Q48.98 233.34 43.21 237.82Q37.43 242.30 26.91 242.30Q15.50 242.30 9.15 238.13Q2.81 233.97 2.81 226.54Q2.81 226.23 2.82 225.94Q2.84 225.65 2.87 225.33ZM55.26 239.08L55.45 214.08L54.75 192.39Q57.59 192.68 60.92 192.82Q64.25 192.97 68.52 192.97Q68.24 196.67 68.11 201.04Q67.98 205.40 67.98 210.35Q70.60 208.11 72.92 207.11Q75.25 206.11 77.77 206.11Q82.20 206.11 84.40 208.77Q86.60 211.43 86.60 216.76L86.60 241.05L74.64 241.24L75.15 230.40L74.01 216.50L65.24 216.76L65.62 240L55.26 239.08ZM115.01 214.87L106.28 215.70L104.49 230.72Q106.85 231.52 109.54 231.90Q112.24 232.28 115.46 232.28L116.32 232.28L115.01 214.87M110.71 206.11Q118.84 206.11 124.21 211.69Q129.58 217.27 129.58 225.97Q129.58 232.86 124.31 237.48Q119.03 242.10 111.28 242.10Q103.09 242.10 97.99 236.91Q92.88 231.71 92.88 223.29Q92.88 215.42 97.71 210.76Q102.54 206.11 110.71 206.11ZM148.24 220.68L158.50 220.68L157.90 214.01L148.24 214.20L148.24 220.68M157.45 230.40L170.17 230.02Q169.28 235.73 164.85 238.95Q160.42 242.17 153.40 242.17Q144.51 242.17 139.33 237.43Q134.14 232.70 134.14 224.66Q134.14 216.25 139.15 211.18Q144.16 206.11 152.48 206.11Q160.93 206.11 165.89 211.32Q170.84 216.53 170.84 225.49L170.84 226.67L157.83 226.67Q155.86 226.67 153.10 226.83Q150.34 226.99 146.07 227.34Q146.07 229.00 146.23 230.61Q146.39 232.22 146.67 233.78L157.07 233.94L157.45 230.40ZM175.98 230.85L186.44 231.65L187.01 234.01L198.46 234.20L198.46 229.61Q184.71 228.87 180.15 226.13Q175.60 223.39 175.60 216.82Q175.60 210.98 178.98 208.42Q182.35 205.85 190.36 205.85Q197.98 205.85 201.57 208.19Q205.15 210.54 205.95 215.96Q205.89 215.96 205.76 215.96Q199.41 215.70 196.16 215.70L195.30 212.96L185.13 212.96L185.13 217.62Q198.36 218.16 203.18 220.92Q207.99 223.67 207.99 230.02Q207.99 235.70 203.73 238.90Q199.48 242.10 191.86 242.10Q184.11 242.10 180.04 239.30Q175.98 236.49 175.98 231.10L175.98 230.85Z" fill="#6C9380" style="fill: rgb(108, 147, 128);"></path></g><g id="SvgjsG1008" rel="mainfill" name="slogan_text" xmlns:name="slogan_text" transform="translate(124.56499767303467,-161.71998596191406)" fill="#6C9380"><path d="M0.96 239.16L0.96 223.97Q0.96 223.53 1.06 223.39Q1.25 223.12 1.81 223.12L9.45 223.12Q10.01 223.12 10.15 223.33Q10.30 223.53 10.30 223.97L10.30 225.82Q10.30 226.09 10.11 226.24Q9.93 226.40 9.55 226.40L4.97 226.40Q4.53 226.40 4.53 226.79L4.53 229.32Q4.53 229.75 4.80 229.75L8.61 229.75Q8.85 229.75 9.01 229.87Q9.16 229.99 9.16 230.21L9.16 232.41Q9.16 232.89 8.68 232.89L4.85 232.89Q4.53 232.89 4.53 233.30L4.53 239.16Q4.53 239.71 4.33 239.86Q4.12 240 3.69 240L1.81 240Q1.37 240 1.23 239.90Q0.96 239.71 0.96 239.16ZM11.72 235.35L11.72 231.25Q11.72 229.29 12.47 228.14Q13.57 226.40 16.30 226.40Q19.00 226.40 20.13 228.14Q20.88 229.29 20.88 231.25L20.88 235.35Q20.88 237.30 20.13 238.46Q19.02 240.19 16.30 240.19Q13.60 240.19 12.47 238.46Q11.72 237.30 11.72 235.35M15.00 230.69L15.00 235.90Q15.00 236.79 15.41 237.18Q15.74 237.49 16.30 237.49Q16.83 237.49 17.17 237.18Q17.60 236.77 17.60 235.90L17.60 230.69Q17.60 229.80 17.23 229.45Q16.85 229.10 16.30 229.10Q15.77 229.10 15.43 229.42Q15.00 229.83 15.00 230.69ZM25.94 233.20L25.94 239.32Q25.94 239.76 25.76 239.88Q25.58 240 25.27 240L23.34 240Q22.91 240 22.78 239.82Q22.66 239.64 22.66 239.32L22.66 227.27Q22.66 226.84 22.85 226.71Q23.03 226.59 23.34 226.59L25.53 226.59Q25.97 226.59 25.97 226.93L25.97 227.20Q25.97 227.29 26.09 227.39L26.43 227.17Q26.93 226.79 27.25 226.64Q27.80 226.40 28.60 226.40Q28.96 226.40 29.14 226.51Q29.32 226.62 29.32 226.98L29.32 229.32Q29.32 229.61 29.14 229.70Q28.96 229.80 28.74 229.80L28.28 229.80Q27.70 229.80 27.37 229.95Q27.03 230.09 26.69 230.43Q26.16 230.96 26.05 231.59Q25.94 232.21 25.94 233.20ZM37.69 239.16L37.69 223.97Q37.69 223.53 37.78 223.39Q37.97 223.12 38.53 223.12L46.44 223.12Q46.99 223.12 47.14 223.33Q47.28 223.53 47.28 223.97L47.28 225.68Q47.28 225.94 47.10 226.10Q46.92 226.26 46.53 226.26L41.69 226.26Q41.25 226.26 41.25 226.64L41.25 229.17Q41.25 229.61 41.52 229.61L45.33 229.61Q45.57 229.61 45.73 229.73Q45.88 229.85 45.88 230.07L45.88 232.26Q45.88 232.74 45.40 232.74L41.57 232.74Q41.25 232.74 41.25 233.15L41.25 236.58Q41.25 236.87 41.52 236.87L46.94 236.87Q47.35 236.87 47.47 237.02Q47.59 237.18 47.59 237.47L47.59 239.16Q47.59 239.59 47.50 239.73Q47.31 240 46.75 240L38.53 240Q38.10 240 37.95 239.90Q37.69 239.71 37.69 239.16ZM49.04 226.59L51.45 226.59Q51.79 226.59 51.93 226.80Q52.08 227.00 52.15 227.27L52.44 228.45Q52.95 230.52 53.16 231.75L53.48 233.47Q53.55 233.95 53.60 234.30Q53.65 234.65 53.77 234.65Q53.89 234.65 53.95 234.18Q54.01 233.71 54.08 233.27Q54.30 232.12 54.44 231.27Q54.73 229.75 55.05 228.43L55.33 227.25Q55.48 226.59 56.06 226.59L58.37 226.59Q58.93 226.59 58.76 227.25L58.28 229.15L56.90 234.50Q55.86 238.41 55.53 239.32Q55.38 239.78 55.21 239.89Q55.05 240 54.73 240L52.49 240Q52.10 240 51.97 239.83Q51.84 239.66 51.77 239.32L48.54 227.27Q48.46 227.08 48.52 226.84Q48.58 226.59 49.04 226.59ZM68.23 234.19L63.39 234.19Q63.22 234.19 63.16 234.27Q63.10 234.36 63.10 234.48L63.10 235.25Q63.10 236.21 63.73 236.73Q64.35 237.25 65.46 237.25Q66.23 237.25 66.86 237.14Q67.49 237.03 68.19 236.79Q68.79 236.60 68.79 237.18L68.79 239.16Q68.79 239.35 68.70 239.46Q68.62 239.57 68.33 239.69Q67.53 239.98 66.71 240.08Q65.90 240.19 65.24 240.19Q63.15 240.19 61.84 239.42Q59.82 238.22 59.82 235.32L59.82 231.25Q59.82 229.32 60.57 228.16Q61.70 226.40 64.40 226.40Q66.04 226.40 67.10 227.08Q68.91 228.23 68.91 231.25L68.91 233.51Q68.91 233.95 68.73 234.07Q68.55 234.19 68.23 234.19M63.34 231.54L65.39 231.54Q65.53 231.54 65.63 231.30L65.63 230.77Q65.63 230.07 65.46 229.70Q65.15 229.05 64.40 229.05Q63.77 229.05 63.44 229.48Q63.10 229.90 63.10 230.77L63.10 231.30Q63.10 231.54 63.34 231.54ZM74.00 233.20L74.00 239.32Q74.00 239.76 73.82 239.88Q73.63 240 73.32 240L71.39 240Q70.96 240 70.84 239.82Q70.72 239.64 70.72 239.32L70.72 227.27Q70.72 226.84 70.90 226.71Q71.08 226.59 71.39 226.59L73.59 226.59Q74.02 226.59 74.02 226.93L74.02 227.20Q74.02 227.29 74.14 227.39L74.48 227.17Q74.98 226.79 75.30 226.64Q75.85 226.40 76.65 226.40Q77.01 226.40 77.19 226.51Q77.37 226.62 77.37 226.98L77.37 229.32Q77.37 229.61 77.19 229.70Q77.01 229.80 76.79 229.80L76.34 229.80Q75.76 229.80 75.42 229.95Q75.08 230.09 74.74 230.43Q74.21 230.96 74.10 231.59Q74.00 232.21 74.00 233.20ZM78.14 226.59L80.46 226.59Q80.84 226.59 80.96 226.75Q81.08 226.91 81.16 227.25L82.31 232.94Q82.34 233.08 82.39 233.32Q82.44 233.56 82.63 233.56Q82.80 233.56 82.92 232.94L83.95 227.25Q84.05 226.59 84.65 226.59L86.92 226.59Q87.45 226.59 87.45 226.96Q87.45 227.05 87.40 227.25L84.68 239.61Q84.15 242.00 83.04 242.82Q82.03 243.57 80.31 243.57Q78.79 243.57 78.29 243.28Q78.02 243.13 78.02 242.72L78.02 240.92Q78.02 240.46 78.46 240.46Q78.65 240.46 79.06 240.58Q79.20 240.60 79.35 240.64Q79.49 240.68 79.73 240.68Q80.24 240.68 80.42 240.48Q80.60 240.29 80.60 239.93Q80.60 239.64 80.53 239.42L77.69 227.25Q77.54 226.59 78.14 226.59ZM88.32 235.35L88.32 231.25Q88.32 229.29 89.07 228.14Q90.17 226.40 92.90 226.40Q95.60 226.40 96.73 228.14Q97.48 229.29 97.48 231.25L97.48 235.35Q97.48 237.30 96.73 238.46Q95.62 240.19 92.90 240.19Q90.20 240.19 89.07 238.46Q88.32 237.30 88.32 235.35M91.60 230.69L91.60 235.90Q91.60 236.79 92.01 237.18Q92.34 237.49 92.90 237.49Q93.43 237.49 93.77 237.18Q94.20 236.77 94.20 235.90L94.20 230.69Q94.20 229.80 93.83 229.45Q93.45 229.10 92.90 229.10Q92.37 229.10 92.03 229.42Q91.60 229.83 91.60 230.69ZM99.26 239.32L99.26 227.27Q99.26 226.84 99.45 226.71Q99.63 226.59 99.94 226.59L102.09 226.59Q102.28 226.59 102.41 226.73Q102.54 226.86 102.54 227.05Q102.54 227.29 102.71 227.29Q102.74 227.29 102.93 227.17Q103.29 226.86 103.65 226.69Q104.28 226.40 105.05 226.40Q106.33 226.40 107.15 227.17Q108.14 228.11 108.14 229.99L108.14 239.32Q108.14 239.76 107.96 239.88Q107.78 240 107.46 240L105.53 240Q105.10 240 104.98 239.82Q104.86 239.64 104.86 239.32L104.86 230.69Q104.86 230.21 104.56 229.89Q104.26 229.56 103.73 229.56Q102.95 229.56 102.69 230.24Q102.54 230.62 102.54 231.34L102.54 239.32Q102.54 239.76 102.36 239.88Q102.18 240 101.87 240L99.94 240Q99.51 240 99.39 239.82Q99.26 239.64 99.26 239.32ZM118.48 234.19L113.63 234.19Q113.47 234.19 113.41 234.27Q113.35 234.36 113.35 234.48L113.35 235.25Q113.35 236.21 113.97 236.73Q114.60 237.25 115.71 237.25Q116.48 237.25 117.11 237.14Q117.73 237.03 118.43 236.79Q119.04 236.60 119.04 237.18L119.04 239.16Q119.04 239.35 118.95 239.46Q118.87 239.57 118.58 239.69Q117.78 239.98 116.96 240.08Q116.14 240.19 115.49 240.19Q113.39 240.19 112.09 239.42Q110.07 238.22 110.07 235.32L110.07 231.25Q110.07 229.32 110.81 228.16Q111.95 226.40 114.65 226.40Q116.29 226.40 117.35 227.08Q119.16 228.23 119.16 231.25L119.16 233.51Q119.16 233.95 118.98 234.07Q118.79 234.19 118.48 234.19M113.59 231.54L115.64 231.54Q115.78 231.54 115.88 231.30L115.88 230.77Q115.88 230.07 115.71 229.70Q115.39 229.05 114.65 229.05Q114.02 229.05 113.68 229.48Q113.35 229.90 113.35 230.77L113.35 231.30Q113.35 231.54 113.59 231.54Z" fill="#6C9380" style="fill: rgb(108, 147, 128);"></path></g><g id="SvgjsG1009" rel="mainfill" name="symbol" xmlns:name="symbol_mainfill" transform="translate(-7.353660874250458,0.0713272094726598) scale(0.8170731707317073)" fill="#6C9380"><g transform="translate(0,-952.36218)" fill="#6C9380"><path style="fill: rgb(108, 147, 128);" d="m 44.613148,983.8622 -1.99781,1.0312 -2.55971,12.37496 -3.99564,2.0626 -10.988,0 -3.99564,-2.0626 -2.99672,-8.24996 -1.99782,-2.0624 -4.02686,-3.0626 c -1.99858,0 -2.9658697,2.0309 -2.9655097,3.0626 l 0,6.56236 c 1.7644897,0 3.6336697,0 5.4315697,0 1.05548,-0.015 2.02627,0.9433 2.02627,2 0,1.0567 -0.97079,2.0149 -2.02627,2 -1.78764,-0.012 -3.68871,0.051 -5.4315697,-0.062 l 0,14.28124 c -2e-5,1.143 1.9966897,4.125 4.9945497,4.125 l 30.09214,0 4.96333,-18.53124 3.87078,1.0312 -4.68239,17.50004 4.37023,0 3.90199,-14.5938 3.87077,1.0313 -3.62105,13.5625 4.37023,0 2.87187,-10.6562 3.83955,1.0312 -2.5597,9.625 18.91684,0 c 3.21367,-0.055 6.68056,-0.6848 6.71142,-5.9688 0,-5 -4.96333,-6.5624 -4.96333,-6.5624 l -14.01594,-4.50004 z m -33.68197,31.9688 c -0.89005,0.028 -1.7154397,0.7243 -1.8941997,1.5977 -0.17878,0.8733 0.30656,1.8383 1.1137997,2.2147 0.93231,0.5138 1.97201,0.999 2.9343,1.2188 l 73.91929,0 c 1.03369,-0.1077 1.89545,-0.7304 2.84065,-1.2188 0.97627,-0.4474 1.43602,-1.7677 0.94913,-2.7257 -0.48689,-0.958 -1.82364,-1.3633 -2.75966,-0.8367 l -1.49836,0.7812 -72.9516,0 c -0.83709,-0.4893 -1.78595,-0.8735 -2.65335,-1.0312 z" fill="#6C9380" stroke="none" marker="none" visibility="visible" display="inline" overflow="visible"></path></g></g></svg>
