<svg xmlns="http://www.w3.org/2000/svg" version="1.1" xmlns:xlink="http://www.w3.org/1999/xlink" xmlns:svgjs="http://svgjs.com/svgjs" height="159.6538943705586" width="271.489990234375"><defs id="SvgjsDefs1062"></defs><g id="SvgjsG1063" rel="mainfill" name="main_text" xmlns:name="main_text" transform="translate(0.10999999940395355,-110.06451993608204)" fill="#ffffff"><path d="M25.46 239.96L25.46 201.52L38.06 201.52L38.06 188.70L-0.11 188.70L-0.11 201.52L12.50 201.52L12.50 239.96ZM77.35 227.29L59.25 227.29C56.69 227.29 54.56 224.87 54.56 222.32L54.56 220.60L77.35 220.60L77.35 208.41L54.56 208.41L54.56 206.35C54.56 203.79 56.69 201.55 59.25 201.55L77.35 201.55L77.35 188.70L59.25 188.70C49.51 188.70 41.46 196.75 41.46 206.56L41.46 222.25C41.46 231.91 49.51 240.04 59.25 240.04L77.35 240.04ZM110.69 188.56L111.21 218.25L96.44 192.31C92.90 186.04 80.61 184.81 80.61 197.03L80.57 239.96L94.13 239.96L93.88 212.44L107.68 236.43C111.98 243.89 124.31 241.30 124.24 232.26L124.24 188.56ZM152.08 239.96L152.08 201.52L164.68 201.52L164.68 188.70L126.52 188.70L126.52 201.52L139.12 201.52L139.12 239.96ZM199.49 226.87L184.22 226.87C182.05 226.94 180.23 225.19 180.23 223.02C180.23 220.92 181.98 219.16 184.08 219.16C188.29 219.16 188.74 224.66 184.22 224.59L184.22 226.06L186.43 226.06L198.09 226.03C199.81 224.00 200.23 221.37 200.05 218.81C199.49 209.71 191.89 206.03 184.08 206.03C174.70 206.03 167.10 213.63 167.10 223.02C167.10 232.40 174.70 240 184.08 240L184.22 240L199.49 240ZM219.59 227.08C217.52 227.08 215.67 225.29 215.67 223.23C215.67 221.09 217.45 219.31 219.52 219.31L236.19 219.31C234.40 211.78 227.61 206.14 219.52 206.14C210.17 206.14 202.50 213.77 202.50 223.23C202.50 232.37 210.31 240.25 219.52 240.25C227.40 240.25 234.40 234.54 236.19 227.08ZM271.38 240L271.38 222.18C271.38 211.32 260.74 202.99 250.62 207.99C251.21 190.10 244.38 189.19 238.01 188.53L238.01 240L250.90 240L250.90 222.18C250.90 220.11 252.54 218.29 254.64 218.29C256.85 218.29 258.46 220.11 258.46 222.18L258.46 240Z" fill="#ffffff" style="fill: rgb(255, 255, 255);"></path></g><g id="SvgjsG1064" rel="mainfill" name="slogan_text" xmlns:name="slogan_text" transform="translate(35.26176428794861,-84.31610685014454)" fill="#ffffff"><path d="M1.82 225.59L1.82 240L7.32 240C11.88 240 14.12 238.33 14.12 232.75C14.12 227.14 11.88 225.59 7.32 225.59ZM11.20 232.77C11.20 236.84 10.23 237.64 7.05 237.64L4.55 237.64L4.55 227.95L7.05 227.95C10.23 227.95 11.20 228.53 11.20 232.77ZM24.64 237.69C23.81 237.93 22.42 238.12 21.68 238.12C19.84 238.12 18.97 237.66 18.95 235.41L25.75 235.41C25.94 230.31 24.49 229.17 21.16 229.17C18.10 229.17 16.27 230.47 16.27 234.69C16.27 239.01 18.33 240.29 21.37 240.29C22.44 240.29 24.00 240.06 25.05 239.71ZM21.31 231.20C22.78 231.20 23.31 231.59 23.40 233.45L18.97 233.45C19.14 231.71 19.70 231.20 21.31 231.20ZM31.89 237.42C31.15 234.71 30.22 231.84 29.29 229.48L26.62 229.48C27.92 232.64 29.12 236.34 30.15 240L33.32 240C34.72 236.59 36.09 232.89 37.10 229.48L34.49 229.48C33.81 232.10 32.88 234.79 31.89 237.42ZM41.17 229.48L38.61 229.48L38.61 240L41.17 240ZM39.91 225.10C38.77 225.10 38.42 225.26 38.42 226.36C38.42 227.58 38.77 227.79 39.91 227.79C41.03 227.79 41.38 227.58 41.38 226.36C41.38 225.26 41.03 225.10 39.91 225.10ZM51.48 237.56C50.82 237.83 49.93 238.06 49.04 238.06C47.18 238.06 46.30 237.52 46.30 234.73C46.30 231.82 47.18 231.40 49.04 231.40C49.89 231.40 50.82 231.61 51.48 231.86L52.06 229.67C51.28 229.38 49.87 229.17 48.86 229.17C45.68 229.17 43.65 230.39 43.65 234.69C43.65 239.01 45.65 240.29 48.86 240.29C49.85 240.29 51.23 240.08 52.06 239.75ZM61.73 237.69C60.91 237.93 59.52 238.12 58.78 238.12C56.94 238.12 56.07 237.66 56.05 235.41L62.85 235.41C63.04 230.31 61.59 229.17 58.26 229.17C55.20 229.17 53.36 230.47 53.36 234.69C53.36 239.01 55.43 240.29 58.47 240.29C59.54 240.29 61.09 240.06 62.15 239.71ZM58.41 231.20C59.87 231.20 60.41 231.59 60.49 233.45L56.07 233.45C56.24 231.71 56.79 231.20 58.41 231.20ZM72.69 229.75C71.63 229.40 70.25 229.17 69.15 229.17C66.49 229.17 64.65 229.93 64.65 232.66C64.65 234.83 65.89 235.47 68.20 235.66C70.04 235.83 70.46 236.18 70.46 236.92C70.46 238.02 69.79 238.20 68.39 238.20C67.33 238.20 66.03 237.97 65.27 237.71L64.73 239.73C65.72 240.08 67.38 240.29 68.49 240.29C71.18 240.29 73.00 239.50 73.00 236.78C73.00 234.67 71.88 233.88 69.34 233.61C67.62 233.45 67.17 233.20 67.17 232.48C67.17 231.38 67.81 231.26 69.07 231.26C70.13 231.26 71.30 231.48 72.13 231.75ZM83.79 228.92C83.79 227.58 84.45 227.23 85.46 227.23C86.08 227.23 86.87 227.35 87.36 227.52L87.94 225.49C87.13 225.22 86.02 225.04 85.05 225.04C82.98 225.04 81.22 225.72 81.22 228.78L81.22 229.48L79.47 229.48L79.47 231.71L81.22 231.71L81.22 240L83.79 240L83.79 231.71L87.20 231.71L87.20 229.48L83.79 229.48ZM93.19 240.29C96.58 240.29 98.23 239.01 98.23 234.69C98.23 230.39 96.56 229.17 93.19 229.17C89.86 229.17 88.19 230.39 88.19 234.69C88.19 239.01 89.84 240.29 93.19 240.29ZM93.19 231.24C95.03 231.24 95.59 231.71 95.59 234.73C95.59 237.64 95.03 238.22 93.19 238.22C91.39 238.22 90.83 237.64 90.83 234.73C90.83 231.71 91.39 231.24 93.19 231.24ZM100.71 240L103.28 240L103.28 232.70C103.28 231.94 104.41 231.53 105.69 231.53C106.15 231.53 106.67 231.59 107.04 231.67L107.04 229.23C106.67 229.19 106.31 229.17 105.96 229.17C104.45 229.17 103.65 229.69 103.28 230.27L103.28 229.48L100.71 229.48ZM122.04 237.69C121.22 237.93 119.83 238.12 119.09 238.12C117.25 238.12 116.38 237.66 116.36 235.41L123.16 235.41C123.34 230.31 121.90 229.17 118.57 229.17C115.51 229.17 113.67 230.47 113.67 234.69C113.67 239.01 115.74 240.29 118.78 240.29C119.85 240.29 121.40 240.06 122.46 239.71ZM118.71 231.20C120.18 231.20 120.72 231.59 120.80 233.45L116.38 233.45C116.54 231.71 117.10 231.20 118.71 231.20ZM129.30 237.42C128.55 234.71 127.62 231.84 126.69 229.48L124.03 229.48C125.33 232.64 126.53 236.34 127.56 240L130.72 240C132.13 236.59 133.49 232.89 134.50 229.48L131.90 229.48C131.22 232.10 130.29 234.79 129.30 237.42ZM144.01 237.69C143.18 237.93 141.80 238.12 141.06 238.12C139.22 238.12 138.35 237.66 138.33 235.41L145.13 235.41C145.31 230.31 143.87 229.17 140.54 229.17C137.48 229.17 135.64 230.47 135.64 234.69C135.64 239.01 137.71 240.29 140.75 240.29C141.82 240.29 143.37 240.06 144.42 239.71ZM140.68 231.20C142.15 231.20 142.69 231.59 142.77 233.45L138.35 233.45C138.51 231.71 139.07 231.20 140.68 231.20ZM147.42 240L149.98 240L149.98 232.70C149.98 231.94 151.12 231.53 152.40 231.53C152.86 231.53 153.37 231.59 153.75 231.67L153.75 229.23C153.37 229.19 153.02 229.17 152.67 229.17C151.16 229.17 150.36 229.69 149.98 230.27L149.98 229.48L147.42 229.48ZM157.55 240.52C157.03 241.65 156.39 242.98 155.83 243.97L158.69 243.97C159.22 242.93 159.82 241.61 160.32 240.43C161.85 236.84 163.25 233.08 164.31 229.48L161.70 229.48C161.04 232.08 160.09 234.83 159.10 237.46C158.38 234.75 157.42 231.79 156.49 229.48L153.83 229.48C155.13 232.62 156.52 236.78 157.55 240.52ZM170.45 240.29C173.83 240.29 175.49 239.01 175.49 234.69C175.49 230.39 173.81 229.17 170.45 229.17C167.12 229.17 165.44 230.39 165.44 234.69C165.44 239.01 167.10 240.29 170.45 240.29ZM170.45 231.24C172.28 231.24 172.84 231.71 172.84 234.73C172.84 237.64 172.28 238.22 170.45 238.22C168.65 238.22 168.09 237.64 168.09 234.73C168.09 231.71 168.65 231.24 170.45 231.24ZM180.53 231.73C181.15 231.57 181.75 231.48 182.41 231.48C184.23 231.48 184.66 232.06 184.66 234.40L184.66 240L187.23 240L187.23 234.13C187.23 230.35 185.90 229.17 182.95 229.17C181.28 229.17 179.25 229.58 177.97 230.08L177.97 240L180.53 240ZM198.02 237.69C197.19 237.93 195.80 238.12 195.06 238.12C193.22 238.12 192.35 237.66 192.33 235.41L199.13 235.41C199.32 230.31 197.87 229.17 194.54 229.17C191.48 229.17 189.65 230.47 189.65 234.69C189.65 239.01 191.71 240.29 194.75 240.29C195.83 240.29 197.38 240.06 198.43 239.71ZM194.69 231.20C196.16 231.20 196.69 231.59 196.78 233.45L192.35 233.45C192.52 231.71 193.08 231.20 194.69 231.20Z" fill="#ffffff" style="fill: rgb(255, 255, 255);"></path></g><g id="SvgjsG1065" rel="mainfill" name="symbol" xmlns:name="symbol_mainfill" transform="translate(97.77832729533567,-9.538984061634466) scale(0.7570621468926554)" fill="#ffffff"><g fill="#ffffff"><circle fill="none" cx="14" cy="41.5" r="4"></circle><circle fill="none" cx="73.1" cy="20.9" r="4"></circle><circle fill="none" cx="85.8" cy="80.5" r="4"></circle><path fill="#ffffff" d="M88.8,72.7V59.5c0-1.6-1.3-3-3-3H72.2v-10h7.5c1.1,2,3.2,3.4,5.6,3.4c3.5,0,6.4-2.9,6.4-6.4   c0-3.5-2.9-6.4-6.4-6.4c-2.6,0-4.8,1.5-5.8,3.7l-7.3-0.1v-0.3c0-3.6-2.9-6.5-6.5-6.5H55.1V23.9h10.2c1.2,3.1,4.2,5.3,7.7,5.3   c4.6,0,8.3-3.7,8.3-8.3s-3.7-8.3-8.3-8.3c-3.5,0-6.5,2.2-7.7,5.3H52.1c-1.6,0-3,1.3-3,3v13.1H36.7c-2.8,0-5.2,1.9-6.1,4.4h-8.7   c-1.2-3.1-4.2-5.3-7.7-5.3c-4.6,0-8.3,3.7-8.3,8.3s3.7,8.3,8.3,8.3c3.6,0,6.7-2.4,7.8-5.6l8.3,0.1v17.2h-3.5   c-1.1-2-3.2-3.4-5.6-3.4c-3.5,0-6.4,2.9-6.4,6.4c0,3.5,2.9,6.4,6.4,6.4c2.6,0,4.8-1.5,5.8-3.7l3.3,0v2.3c0,3.6,2.9,6.5,6.5,6.5h2.7   v13c0,1.6,1.3,3,3,3h7.5c1.1,2,3.2,3.4,5.6,3.4c3.5,0,6.4-2.9,6.4-6.4c0-3.5-2.9-6.4-6.4-6.4c-2.4,0-4.5,1.4-5.6,3.4h-4.5v-10h20.4   c3.6,0,6.5-2.9,6.5-6.5v-6.9h10.7v10.2c-3.1,1.2-5.3,4.2-5.3,7.7c0,4.6,3.7,8.3,8.3,8.3c4.6,0,8.3-3.7,8.3-8.3   C94.1,76.9,91.9,73.9,88.8,72.7z M73.1,16.9c2.2,0,4,1.8,4,4c0,2.2-1.8,4-4,4c-2.2,0-4-1.8-4-4C69.1,18.7,70.9,16.9,73.1,16.9z    M14,45.5c-2.2,0-4-1.8-4-4s1.8-4,4-4c2.2,0,4,1.8,4,4S16.3,45.5,14,45.5z M85.8,84.5c-2.2,0-4-1.8-4-4c0-2.2,1.8-4,4-4   c2.2,0,4,1.8,4,4C89.9,82.7,88.1,84.5,85.8,84.5z" style="fill: rgb(255, 255, 255);"></path></g></g></svg>
